<svg xmlns="http://www.w3.org/2000/svg" xmlns:xlink="http://www.w3.org/1999/xlink" width="1366" zoomAndPan="magnify" viewBox="0 0 1024.5 576" height="768" preserveAspectRatio="xMidYMid meet" version="1.0"><defs><g/><clipPath id="9bd925394c"><rect x="0" width="756" y="0" height="171"/></clipPath></defs><g transform="matrix(1, 0, 0, 1, 124, 199)"><g clip-path="url(#9bd925394c)"><g fill="#000000" fill-opacity="1"><g transform="translate(0.760112, 131.66651)"><g><path d="M 6.890625 -101.078125 L 28.640625 -101.078125 L 28.640625 -99.546875 L 27.875 -99.546875 C 27.050781 -99.546875 26.332031 -99.265625 25.71875 -98.703125 C 25.113281 -98.140625 24.582031 -97.445312 24.125 -96.625 C 23.664062 -95.8125 23.332031 -94.945312 23.125 -94.03125 C 22.914062 -93.113281 22.8125 -92.296875 22.8125 -91.578125 L 22.8125 -31.09375 C 22.8125 -27.101562 23.21875 -23.421875 24.03125 -20.046875 C 24.851562 -16.679688 26.234375 -13.773438 28.171875 -11.328125 C 30.117188 -8.878906 32.671875 -6.960938 35.828125 -5.578125 C 38.992188 -4.203125 42.875 -3.515625 47.46875 -3.515625 C 52.570312 -3.515625 56.65625 -4.332031 59.71875 -5.96875 C 62.78125 -7.601562 65.128906 -9.722656 66.765625 -12.328125 C 68.398438 -14.929688 69.472656 -17.863281 69.984375 -21.125 C 70.492188 -24.394531 70.75 -27.613281 70.75 -30.78125 L 70.75 -91.578125 C 70.75 -92.296875 70.644531 -93.113281 70.4375 -94.03125 C 70.238281 -94.945312 69.910156 -95.8125 69.453125 -96.625 C 68.992188 -97.445312 68.457031 -98.140625 67.84375 -98.703125 C 67.226562 -99.265625 66.5625 -99.546875 65.84375 -99.546875 L 65.078125 -99.546875 L 65.078125 -101.078125 L 81.78125 -101.078125 L 81.78125 -99.546875 L 81.015625 -99.546875 C 80.191406 -99.546875 79.5 -99.265625 78.9375 -98.703125 C 78.382812 -98.140625 77.875 -97.445312 77.40625 -96.625 C 76.945312 -95.8125 76.613281 -94.945312 76.40625 -94.03125 C 76.207031 -93.113281 76.109375 -92.296875 76.109375 -91.578125 L 76.109375 -31.234375 C 76.109375 -24.597656 75.289062 -19.160156 73.65625 -14.921875 C 72.019531 -10.691406 69.773438 -7.347656 66.921875 -4.890625 C 64.066406 -2.441406 60.722656 -0.757812 56.890625 0.15625 C 53.066406 1.070312 49.007812 1.53125 44.71875 1.53125 C 40.125 1.53125 35.859375 1.046875 31.921875 0.078125 C 27.992188 -0.890625 24.597656 -2.597656 21.734375 -5.046875 C 18.878906 -7.503906 16.632812 -10.847656 15 -15.078125 C 13.375 -19.316406 12.5625 -24.65625 12.5625 -31.09375 L 12.5625 -91.578125 C 12.5625 -92.296875 12.457031 -93.113281 12.25 -94.03125 C 12.039062 -94.945312 11.707031 -95.8125 11.25 -96.625 C 10.789062 -97.445312 10.253906 -98.140625 9.640625 -98.703125 C 9.035156 -99.265625 8.375 -99.546875 7.65625 -99.546875 L 6.890625 -99.546875 Z M 6.890625 -101.078125 "/></g></g></g><g fill="#000000" fill-opacity="1"><g transform="translate(90.185846, 131.66651)"><g><path d="M 65.390625 -1.53125 L 66.15625 -1.53125 C 68.601562 -1.53125 69.828125 -2.65625 69.828125 -4.90625 C 69.828125 -5.71875 69.675781 -6.582031 69.375 -7.5 L 55.59375 -44.71875 L 28.796875 -44.71875 L 15.46875 -8.109375 C 15.15625 -7.296875 15 -6.53125 15 -5.8125 C 15 -4.488281 15.359375 -3.441406 16.078125 -2.671875 C 16.796875 -1.910156 17.5625 -1.53125 18.375 -1.53125 L 19.140625 -1.53125 L 19.140625 0 L 2.140625 0 L 2.140625 -1.53125 L 2.90625 -1.53125 C 4.238281 -1.53125 5.539062 -2.320312 6.8125 -3.90625 C 8.09375 -5.488281 9.140625 -7.351562 9.953125 -9.5 L 45.015625 -102.90625 L 79.328125 -10.40625 C 80.046875 -8.363281 81.039062 -6.375 82.3125 -4.4375 C 83.59375 -2.5 85.253906 -1.53125 87.296875 -1.53125 L 88.0625 -1.53125 L 88.0625 0 L 65.390625 0 Z M 30.328125 -49.921875 L 53.90625 -49.921875 L 42.109375 -81.9375 Z M 30.328125 -49.921875 "/></g></g></g><g fill="#000000" fill-opacity="1"><g transform="translate(180.530337, 131.66651)"><g><path d="M 65.390625 -1.53125 L 66.15625 -1.53125 C 68.601562 -1.53125 69.828125 -2.65625 69.828125 -4.90625 C 69.828125 -5.71875 69.675781 -6.582031 69.375 -7.5 L 55.59375 -44.71875 L 28.796875 -44.71875 L 15.46875 -8.109375 C 15.15625 -7.296875 15 -6.53125 15 -5.8125 C 15 -4.488281 15.359375 -3.441406 16.078125 -2.671875 C 16.796875 -1.910156 17.5625 -1.53125 18.375 -1.53125 L 19.140625 -1.53125 L 19.140625 0 L 2.140625 0 L 2.140625 -1.53125 L 2.90625 -1.53125 C 4.238281 -1.53125 5.539062 -2.320312 6.8125 -3.90625 C 8.09375 -5.488281 9.140625 -7.351562 9.953125 -9.5 L 45.015625 -102.90625 L 79.328125 -10.40625 C 80.046875 -8.363281 81.039062 -6.375 82.3125 -4.4375 C 83.59375 -2.5 85.253906 -1.53125 87.296875 -1.53125 L 88.0625 -1.53125 L 88.0625 0 L 65.390625 0 Z M 30.328125 -49.921875 L 53.90625 -49.921875 L 42.109375 -81.9375 Z M 30.328125 -49.921875 "/></g></g></g><g fill="#000000" fill-opacity="1"><g transform="translate(270.874827, 131.66651)"><g/></g></g><g fill="#000000" fill-opacity="1"><g transform="translate(310.687669, 131.66651)"><g><path d="M 65.390625 -1.53125 L 66.15625 -1.53125 C 68.601562 -1.53125 69.828125 -2.65625 69.828125 -4.90625 C 69.828125 -5.71875 69.675781 -6.582031 69.375 -7.5 L 55.59375 -44.71875 L 28.796875 -44.71875 L 15.46875 -8.109375 C 15.15625 -7.296875 15 -6.53125 15 -5.8125 C 15 -4.488281 15.359375 -3.441406 16.078125 -2.671875 C 16.796875 -1.910156 17.5625 -1.53125 18.375 -1.53125 L 19.140625 -1.53125 L 19.140625 0 L 2.140625 0 L 2.140625 -1.53125 L 2.90625 -1.53125 C 4.238281 -1.53125 5.539062 -2.320312 6.8125 -3.90625 C 8.09375 -5.488281 9.140625 -7.351562 9.953125 -9.5 L 45.015625 -102.90625 L 79.328125 -10.40625 C 80.046875 -8.363281 81.039062 -6.375 82.3125 -4.4375 C 83.59375 -2.5 85.253906 -1.53125 87.296875 -1.53125 L 88.0625 -1.53125 L 88.0625 0 L 65.390625 0 Z M 30.328125 -49.921875 L 53.90625 -49.921875 L 42.109375 -81.9375 Z M 30.328125 -49.921875 "/></g></g></g><g fill="#000000" fill-opacity="1"><g transform="translate(401.032159, 131.66651)"><g><path d="M 7.5 0 L 7.5 -1.53125 C 8.320312 -1.53125 9.035156 -1.835938 9.640625 -2.453125 C 10.253906 -3.066406 10.789062 -3.78125 11.25 -4.59375 C 11.707031 -5.40625 12.039062 -6.296875 12.25 -7.265625 C 12.457031 -8.242188 12.5625 -9.140625 12.5625 -9.953125 L 12.5625 -88.359375 C 12.5625 -90.097656 12.304688 -91.734375 11.796875 -93.265625 C 11.285156 -94.796875 9.753906 -95.613281 7.203125 -95.71875 L 7.203125 -97.25 L 22.671875 -101.984375 L 22.671875 -9.953125 C 22.671875 -9.140625 22.769531 -8.242188 22.96875 -7.265625 C 23.175781 -6.296875 23.507812 -5.40625 23.96875 -4.59375 C 24.425781 -3.78125 24.9375 -3.066406 25.5 -2.453125 C 26.0625 -1.835938 26.75 -1.53125 27.5625 -1.53125 L 27.5625 0 Z M 7.5 0 "/></g></g></g><g fill="#000000" fill-opacity="1"><g transform="translate(436.404322, 131.66651)"><g><path d="M 67.53125 -9.953125 C 67.53125 -9.234375 67.628906 -8.390625 67.828125 -7.421875 C 68.035156 -6.453125 68.316406 -5.535156 68.671875 -4.671875 C 69.035156 -3.804688 69.523438 -3.066406 70.140625 -2.453125 C 70.753906 -1.835938 71.46875 -1.53125 72.28125 -1.53125 L 72.28125 0 L 57.421875 0 L 57.421875 -8.421875 C 55.890625 -6.171875 53.644531 -3.972656 50.6875 -1.828125 C 47.726562 0.304688 43.898438 1.375 39.203125 1.375 C 33.285156 1.375 28.585938 0.351562 25.109375 -1.6875 C 21.640625 -3.726562 18.984375 -6.328125 17.140625 -9.484375 C 15.304688 -12.648438 14.132812 -16.097656 13.625 -19.828125 C 13.113281 -23.554688 12.859375 -27.054688 12.859375 -30.328125 L 12.859375 -52.21875 C 12.859375 -53.132812 12.832031 -54.023438 12.78125 -54.890625 C 12.726562 -55.765625 12.523438 -56.554688 12.171875 -57.265625 C 11.816406 -57.984375 11.28125 -58.570312 10.5625 -59.03125 C 9.851562 -59.488281 8.832031 -59.71875 7.5 -59.71875 L 7.5 -61.109375 L 22.96875 -66 L 22.96875 -26.953125 C 22.96875 -19.191406 24.648438 -13.472656 28.015625 -9.796875 C 31.390625 -6.117188 35.523438 -4.28125 40.421875 -4.28125 C 43.078125 -4.28125 45.453125 -4.867188 47.546875 -6.046875 C 49.640625 -7.222656 51.425781 -8.625 52.90625 -10.25 C 54.382812 -11.882812 55.503906 -13.570312 56.265625 -15.3125 C 57.035156 -17.050781 57.421875 -18.484375 57.421875 -19.609375 L 57.421875 -52.21875 C 57.421875 -53.132812 57.394531 -54.023438 57.34375 -54.890625 C 57.300781 -55.765625 57.097656 -56.554688 56.734375 -57.265625 C 56.378906 -57.984375 55.84375 -58.570312 55.125 -59.03125 C 54.414062 -59.488281 53.394531 -59.71875 52.0625 -59.71875 L 52.0625 -61.109375 L 67.53125 -66 Z M 67.53125 -9.953125 "/></g></g></g><g fill="#000000" fill-opacity="1"><g transform="translate(516.64249, 131.66651)"><g><path d="M 104.90625 -9.953125 C 104.90625 -9.140625 105.003906 -8.242188 105.203125 -7.265625 C 105.410156 -6.296875 105.71875 -5.40625 106.125 -4.59375 C 106.53125 -3.78125 107.015625 -3.066406 107.578125 -2.453125 C 108.140625 -1.835938 108.832031 -1.53125 109.65625 -1.53125 L 109.65625 0 L 89.734375 0 L 89.734375 -1.53125 C 90.554688 -1.53125 91.269531 -1.835938 91.875 -2.453125 C 92.488281 -3.066406 93.023438 -3.78125 93.484375 -4.59375 C 93.953125 -5.40625 94.285156 -6.296875 94.484375 -7.265625 C 94.691406 -8.242188 94.796875 -9.140625 94.796875 -9.953125 L 94.796875 -43.03125 C 94.796875 -45.382812 94.460938 -47.628906 93.796875 -49.765625 C 93.128906 -51.910156 92.132812 -53.773438 90.8125 -55.359375 C 89.488281 -56.941406 87.851562 -58.21875 85.90625 -59.1875 C 83.96875 -60.15625 81.773438 -60.640625 79.328125 -60.640625 C 76.566406 -60.640625 74.191406 -60 72.203125 -58.71875 C 70.210938 -57.445312 68.578125 -55.890625 67.296875 -54.046875 C 66.023438 -52.210938 65.082031 -50.351562 64.46875 -48.46875 C 63.851562 -46.582031 63.546875 -45.023438 63.546875 -43.796875 L 63.546875 -9.953125 C 63.546875 -9.140625 63.648438 -8.242188 63.859375 -7.265625 C 64.066406 -6.296875 64.398438 -5.40625 64.859375 -4.59375 C 65.316406 -3.78125 65.828125 -3.066406 66.390625 -2.453125 C 66.953125 -1.835938 67.640625 -1.53125 68.453125 -1.53125 L 68.453125 0 L 48.703125 0 L 48.703125 -1.53125 C 49.410156 -1.53125 50.070312 -1.835938 50.6875 -2.453125 C 51.300781 -3.066406 51.835938 -3.78125 52.296875 -4.59375 C 52.753906 -5.40625 53.082031 -6.296875 53.28125 -7.265625 C 53.488281 -8.242188 53.59375 -9.140625 53.59375 -9.953125 L 53.59375 -43.953125 C 53.59375 -46.398438 53.160156 -48.671875 52.296875 -50.765625 C 51.429688 -52.859375 50.257812 -54.617188 48.78125 -56.046875 C 47.300781 -57.472656 45.613281 -58.59375 43.71875 -59.40625 C 41.832031 -60.226562 39.921875 -60.640625 37.984375 -60.640625 C 35.328125 -60.640625 33.003906 -60.128906 31.015625 -59.109375 C 29.023438 -58.085938 27.390625 -56.8125 26.109375 -55.28125 C 24.835938 -53.75 23.867188 -52.085938 23.203125 -50.296875 C 22.535156 -48.515625 22.203125 -46.804688 22.203125 -45.171875 L 22.203125 -9.953125 C 22.203125 -9.140625 22.300781 -8.242188 22.5 -7.265625 C 22.707031 -6.296875 23.039062 -5.40625 23.5 -4.59375 C 23.96875 -3.78125 24.476562 -3.066406 25.03125 -2.453125 C 25.59375 -1.835938 26.285156 -1.53125 27.109375 -1.53125 L 27.109375 0 L 7.34375 0 L 7.34375 -1.53125 C 8.0625 -1.53125 8.726562 -1.835938 9.34375 -2.453125 C 9.957031 -3.066406 10.492188 -3.78125 10.953125 -4.59375 C 11.410156 -5.40625 11.738281 -6.296875 11.9375 -7.265625 C 12.144531 -8.242188 12.25 -9.140625 12.25 -9.953125 L 12.25 -50.84375 C 12.25 -51.65625 12.195312 -52.570312 12.09375 -53.59375 C 11.988281 -54.613281 11.785156 -55.582031 11.484375 -56.5 C 11.179688 -57.425781 10.671875 -58.191406 9.953125 -58.796875 C 9.234375 -59.410156 8.265625 -59.71875 7.046875 -59.71875 L 7.046875 -61.109375 L 22.203125 -66.15625 L 22.203125 -58.34375 C 23.734375 -60.082031 25.851562 -61.765625 28.5625 -63.390625 C 31.269531 -65.023438 34.816406 -65.84375 39.203125 -65.84375 C 42.054688 -65.84375 44.609375 -65.4375 46.859375 -64.625 C 49.109375 -63.8125 51.070312 -62.765625 52.75 -61.484375 C 54.4375 -60.210938 55.890625 -58.757812 57.109375 -57.125 C 58.335938 -55.488281 59.363281 -53.90625 60.1875 -52.375 C 61 -53.90625 61.96875 -55.460938 63.09375 -57.046875 C 64.21875 -58.628906 65.570312 -60.082031 67.15625 -61.40625 C 68.738281 -62.738281 70.625 -63.8125 72.8125 -64.625 C 75.007812 -65.4375 77.585938 -65.84375 80.546875 -65.84375 C 86.265625 -65.84375 90.753906 -64.820312 94.015625 -62.78125 C 97.285156 -60.738281 99.710938 -58.289062 101.296875 -55.4375 C 102.878906 -52.582031 103.875 -49.597656 104.28125 -46.484375 C 104.695312 -43.367188 104.90625 -40.738281 104.90625 -38.59375 Z M 104.90625 -9.953125 "/></g></g></g><g fill="#000000" fill-opacity="1"><g transform="translate(635.009059, 131.66651)"><g><path d="M 68.453125 -9.953125 C 68.453125 -9.140625 68.550781 -8.242188 68.75 -7.265625 C 68.957031 -6.296875 69.289062 -5.40625 69.75 -4.59375 C 70.207031 -3.78125 70.71875 -3.066406 71.28125 -2.453125 C 71.84375 -1.835938 72.535156 -1.53125 73.359375 -1.53125 L 73.359375 0 L 53.59375 0 L 53.59375 -1.53125 C 54.3125 -1.53125 54.976562 -1.835938 55.59375 -2.453125 C 56.207031 -3.066406 56.742188 -3.78125 57.203125 -4.59375 C 57.660156 -5.40625 57.988281 -6.296875 58.1875 -7.265625 C 58.394531 -8.242188 58.5 -9.140625 58.5 -9.953125 L 58.5 -38.4375 C 58.5 -42.113281 57.988281 -45.328125 56.96875 -48.078125 C 55.945312 -50.835938 54.566406 -53.132812 52.828125 -54.96875 C 51.097656 -56.8125 49.132812 -58.164062 46.9375 -59.03125 C 44.738281 -59.90625 42.519531 -60.34375 40.28125 -60.34375 C 38.03125 -60.34375 35.804688 -59.878906 33.609375 -58.953125 C 31.421875 -58.035156 29.484375 -56.835938 27.796875 -55.359375 C 26.109375 -53.878906 24.726562 -52.144531 23.65625 -50.15625 C 22.582031 -48.164062 22.046875 -46.097656 22.046875 -43.953125 L 22.046875 -9.953125 C 22.046875 -9.140625 22.148438 -8.242188 22.359375 -7.265625 C 22.566406 -6.296875 22.898438 -5.40625 23.359375 -4.59375 C 23.816406 -3.78125 24.328125 -3.066406 24.890625 -2.453125 C 25.453125 -1.835938 26.140625 -1.53125 26.953125 -1.53125 L 26.953125 0 L 7.046875 0 L 7.046875 -1.53125 C 7.753906 -1.53125 8.414062 -1.835938 9.03125 -2.453125 C 9.644531 -3.066406 10.179688 -3.78125 10.640625 -4.59375 C 11.097656 -5.40625 11.425781 -6.296875 11.625 -7.265625 C 11.832031 -8.242188 11.9375 -9.140625 11.9375 -9.953125 L 11.9375 -52.21875 C 11.9375 -53.957031 11.679688 -55.617188 11.171875 -57.203125 C 10.660156 -58.785156 9.179688 -59.625 6.734375 -59.71875 L 6.734375 -61.109375 L 22.046875 -66 L 22.046875 -57.578125 C 22.765625 -58.398438 23.6875 -59.296875 24.8125 -60.265625 C 25.9375 -61.234375 27.285156 -62.148438 28.859375 -63.015625 C 30.441406 -63.878906 32.28125 -64.59375 34.375 -65.15625 C 36.46875 -65.71875 38.945312 -66 41.8125 -66 C 46.601562 -66 50.679688 -65.179688 54.046875 -63.546875 C 57.421875 -61.921875 60.179688 -59.804688 62.328125 -57.203125 C 64.472656 -54.597656 66.03125 -51.738281 67 -48.625 C 67.96875 -45.507812 68.453125 -42.472656 68.453125 -39.515625 Z M 68.453125 -9.953125 "/></g></g></g><g fill="#000000" fill-opacity="1"><g transform="translate(716.472257, 131.66651)"><g><path d="M 9.03125 0 L 9.03125 -1.53125 C 9.851562 -1.53125 10.566406 -1.835938 11.171875 -2.453125 C 11.785156 -3.066406 12.296875 -3.78125 12.703125 -4.59375 C 13.117188 -5.40625 13.425781 -6.296875 13.625 -7.265625 C 13.832031 -8.242188 13.9375 -9.140625 13.9375 -9.953125 L 13.9375 -52.375 C 13.9375 -54.113281 13.679688 -55.769531 13.171875 -57.34375 C 12.660156 -58.925781 11.179688 -59.769531 8.734375 -59.875 L 8.734375 -61.25 L 24.046875 -66.15625 L 24.046875 -9.953125 C 24.046875 -9.140625 24.144531 -8.242188 24.34375 -7.265625 C 24.550781 -6.296875 24.859375 -5.40625 25.265625 -4.59375 C 25.671875 -3.78125 26.179688 -3.066406 26.796875 -2.453125 C 27.410156 -1.835938 28.125 -1.53125 28.9375 -1.53125 L 28.9375 0 Z M 9.796875 -80.859375 C 9.796875 -82.898438 10.484375 -84.632812 11.859375 -86.0625 C 13.242188 -87.488281 14.957031 -88.203125 17 -88.203125 C 19.039062 -88.203125 20.773438 -87.488281 22.203125 -86.0625 C 23.628906 -84.632812 24.34375 -82.898438 24.34375 -80.859375 C 24.34375 -78.816406 23.628906 -77.128906 22.203125 -75.796875 C 20.773438 -74.472656 19.039062 -73.8125 17 -73.8125 C 14.957031 -73.8125 13.242188 -74.472656 11.859375 -75.796875 C 10.484375 -77.128906 9.796875 -78.816406 9.796875 -80.859375 Z M 9.796875 -80.859375 "/></g></g></g></g></g></svg>